<svg width="95" height="97" viewBox="0 0 95 97" fill="none" xmlns="http://www.w3.org/2000/svg">
<path d="M27.6875 38.7188C22.5417 37.2396 18.7917 35.4271 16.4375 33.2812C14.1042 31.1146 12.9375 28.4479 12.9375 25.2812C12.9375 21.6979 14.3646 18.7396 17.2188 16.4062C20.0938 14.0521 23.8229 12.875 28.4062 12.875C31.5312 12.875 34.3125 13.4792 36.75 14.6875C39.2083 15.8958 41.1042 17.5625 42.4375 19.6875C43.7917 21.8125 44.4688 24.1354 44.4688 26.6562H38.4375C38.4375 23.9062 37.5625 21.75 35.8125 20.1875C34.0625 18.6042 31.5938 17.8125 28.4062 17.8125C25.4479 17.8125 23.1354 18.4688 21.4688 19.7812C19.8229 21.0729 19 22.875 19 25.1875C19 27.0417 19.7812 28.6146 21.3438 29.9062C22.9271 31.1771 25.6042 32.3438 29.375 33.4062C33.1667 34.4688 36.125 35.6458 38.25 36.9375C40.3958 38.2083 41.9792 39.6979 43 41.4062C44.0417 43.1146 44.5625 45.125 44.5625 47.4375C44.5625 51.125 43.125 54.0833 40.25 56.3125C37.375 58.5208 33.5312 59.625 28.7188 59.625C25.5938 59.625 22.6771 59.0312 19.9688 57.8438C17.2604 56.6354 15.1667 54.9896 13.6875 52.9062C12.2292 50.8229 11.5 48.4583 11.5 45.8125H17.5312C17.5312 48.5625 18.5417 50.7396 20.5625 52.3438C22.6042 53.9271 25.3229 54.7188 28.7188 54.7188C31.8854 54.7188 34.3125 54.0729 36 52.7812C37.6875 51.4896 38.5312 49.7292 38.5312 47.5C38.5312 45.2708 37.75 43.5521 36.1875 42.3438C34.625 41.1146 31.7917 39.9062 27.6875 38.7188Z" fill="black"/>
<path d="M71.7188 38.4375H57.0938V79H51.125V38.4375H36.5312V33.5H71.7188V38.4375Z" fill="black"/>
<path d="M3.43652 64.1875V66.4902H5.21191V67.7471H3.43652V73.6445C3.43652 74.0254 3.51562 74.3125 3.67383 74.5059C3.83203 74.6934 4.10156 74.7871 4.48242 74.7871C4.66992 74.7871 4.92773 74.752 5.25586 74.6816V76C4.82812 76.1172 4.41211 76.1758 4.00781 76.1758C3.28125 76.1758 2.7334 75.9561 2.36426 75.5166C1.99512 75.0771 1.81055 74.4531 1.81055 73.6445V67.7471H0.0791016V66.4902H1.81055V64.1875H3.43652ZM12.6562 73.4775C12.6562 73.0381 12.4893 72.6982 12.1553 72.458C11.8271 72.2119 11.25 72.001 10.4238 71.8252C9.60352 71.6494 8.9502 71.4385 8.46387 71.1924C7.9834 70.9463 7.62598 70.6533 7.3916 70.3135C7.16309 69.9736 7.04883 69.5693 7.04883 69.1006C7.04883 68.3213 7.37695 67.6621 8.0332 67.123C8.69531 66.584 9.53906 66.3145 10.5645 66.3145C11.6426 66.3145 12.5156 66.5928 13.1836 67.1494C13.8574 67.7061 14.1943 68.418 14.1943 69.2852H12.5596C12.5596 68.8398 12.3691 68.4561 11.9883 68.1338C11.6133 67.8115 11.1387 67.6504 10.5645 67.6504C9.97266 67.6504 9.50977 67.7793 9.17578 68.0371C8.8418 68.2949 8.6748 68.6318 8.6748 69.0479C8.6748 69.4404 8.83008 69.7363 9.14062 69.9355C9.45117 70.1348 10.0107 70.3252 10.8193 70.5068C11.6338 70.6885 12.293 70.9053 12.7969 71.1572C13.3008 71.4092 13.6729 71.7139 13.9131 72.0713C14.1592 72.4229 14.2822 72.8535 14.2822 73.3633C14.2822 74.2129 13.9424 74.8955 13.2627 75.4111C12.583 75.9209 11.7012 76.1758 10.6172 76.1758C9.85547 76.1758 9.18164 76.041 8.5957 75.7715C8.00977 75.502 7.5498 75.127 7.21582 74.6465C6.8877 74.1602 6.72363 73.6357 6.72363 73.0732H8.34961C8.37891 73.6182 8.5957 74.0518 9 74.374C9.41016 74.6904 9.94922 74.8486 10.6172 74.8486C11.2324 74.8486 11.7246 74.7256 12.0938 74.4795C12.4688 74.2275 12.6562 73.8936 12.6562 73.4775ZM18.0264 67.6416C18.7471 66.7568 19.6846 66.3145 20.8389 66.3145C22.8486 66.3145 23.8623 67.4482 23.8799 69.7158V76H22.2539V69.707C22.248 69.0215 22.0898 68.5146 21.7793 68.1865C21.4746 67.8584 20.9971 67.6943 20.3467 67.6943C19.8193 67.6943 19.3564 67.835 18.958 68.1162C18.5596 68.3975 18.249 68.7666 18.0264 69.2236V76H16.4004V62.5H18.0264V67.6416ZM28.0811 76H26.4551V66.4902H28.0811V76ZM26.3232 63.9678C26.3232 63.7041 26.4023 63.4814 26.5605 63.2998C26.7246 63.1182 26.9648 63.0273 27.2812 63.0273C27.5977 63.0273 27.8379 63.1182 28.002 63.2998C28.166 63.4814 28.248 63.7041 28.248 63.9678C28.248 64.2314 28.166 64.4512 28.002 64.627C27.8379 64.8027 27.5977 64.8906 27.2812 64.8906C26.9648 64.8906 26.7246 64.8027 26.5605 64.627C26.4023 64.4512 26.3232 64.2314 26.3232 63.9678ZM32.8975 64.1875V66.4902H34.6729V67.7471H32.8975V73.6445C32.8975 74.0254 32.9766 74.3125 33.1348 74.5059C33.293 74.6934 33.5625 74.7871 33.9434 74.7871C34.1309 74.7871 34.3887 74.752 34.7168 74.6816V76C34.2891 76.1172 33.873 76.1758 33.4688 76.1758C32.7422 76.1758 32.1943 75.9561 31.8252 75.5166C31.4561 75.0771 31.2715 74.4531 31.2715 73.6445V67.7471H29.54V66.4902H31.2715V64.1875H32.8975ZM42.1172 73.4775C42.1172 73.0381 41.9502 72.6982 41.6162 72.458C41.2881 72.2119 40.7109 72.001 39.8848 71.8252C39.0645 71.6494 38.4111 71.4385 37.9248 71.1924C37.4443 70.9463 37.0869 70.6533 36.8525 70.3135C36.624 69.9736 36.5098 69.5693 36.5098 69.1006C36.5098 68.3213 36.8379 67.6621 37.4941 67.123C38.1562 66.584 39 66.3145 40.0254 66.3145C41.1035 66.3145 41.9766 66.5928 42.6445 67.1494C43.3184 67.7061 43.6553 68.418 43.6553 69.2852H42.0205C42.0205 68.8398 41.8301 68.4561 41.4492 68.1338C41.0742 67.8115 40.5996 67.6504 40.0254 67.6504C39.4336 67.6504 38.9707 67.7793 38.6367 68.0371C38.3027 68.2949 38.1357 68.6318 38.1357 69.0479C38.1357 69.4404 38.291 69.7363 38.6016 69.9355C38.9121 70.1348 39.4717 70.3252 40.2803 70.5068C41.0947 70.6885 41.7539 70.9053 42.2578 71.1572C42.7617 71.4092 43.1338 71.7139 43.374 72.0713C43.6201 72.4229 43.7432 72.8535 43.7432 73.3633C43.7432 74.2129 43.4033 74.8955 42.7236 75.4111C42.0439 75.9209 41.1621 76.1758 40.0781 76.1758C39.3164 76.1758 38.6426 76.041 38.0566 75.7715C37.4707 75.502 37.0107 75.127 36.6768 74.6465C36.3486 74.1602 36.1846 73.6357 36.1846 73.0732H37.8105C37.8398 73.6182 38.0566 74.0518 38.4609 74.374C38.8711 74.6904 39.4102 74.8486 40.0781 74.8486C40.6934 74.8486 41.1855 74.7256 41.5547 74.4795C41.9297 74.2275 42.1172 73.8936 42.1172 73.4775Z" fill="black"/>
</svg>
